# This file uses centimeters as units for non-parametric coordinates.

mtllib Prefab2.mtl
g default
v -0.500000 -0.500000 0.500000
v 0.500000 -0.500000 0.500000
v -0.500000 0.500000 0.500000
v 0.500000 0.500000 0.500000
v -0.500000 0.500000 -0.500000
v 0.500000 0.500000 -0.500000
v -0.500000 -0.500000 -0.500000
v 0.500000 -0.500000 -0.500000
v -0.500000 0.002711 0.500000
v 0.500000 0.002711 0.500000
v 0.500000 0.002711 -0.500000
v -0.500000 0.002711 -0.500000
v 0.045810 -0.500000 0.500000
v 0.045810 -0.500000 -0.500000
v 0.045810 0.002711 -0.500000
v 0.045810 0.500000 -0.500000
v 0.045810 0.500000 0.500000
v 0.045810 0.002711 0.500000
v -0.500000 0.500000 0.017640
v 0.045810 0.500000 0.017640
v 0.500000 0.500000 0.017640
v 0.500000 0.002711 0.017640
v 0.500000 -0.500000 0.017640
v 0.045810 -0.500000 0.017640
v -0.500000 -0.500000 0.017640
v -0.500000 0.002711 0.017640
v 1.908942 0.002711 0.017640
v 1.908942 -0.500000 0.017640
v 1.908942 -0.500000 -0.500000
v 1.908942 0.002711 -0.500000
v 1.908942 0.002711 0.500000
v 1.908942 0.002711 0.017640
v 1.908942 0.500000 0.017640
v 1.908942 0.500000 0.500000
v -1.911297 0.002711 -0.500000
v -1.911297 0.002711 0.017640
v -1.911297 0.500000 0.017640
v -1.911297 0.500000 -0.500000
v -1.911297 -0.500000 0.017640
v -1.911297 0.002711 0.017640
v -1.911297 -0.500000 0.500000
v -1.911297 0.002711 0.500000
v 0.045810 2.473740 -0.500000
v 0.045810 2.473740 0.017640
v 0.500000 2.473740 0.017640
v 0.500000 2.473740 -0.500000
v -0.500000 2.473740 0.500000
v 0.045810 2.473740 0.500000
v 0.045810 2.473740 0.017640
v -0.500000 2.473740 0.017640
v 0.045810 0.002711 -2.078435
v 0.045810 0.500000 -2.078435
v 0.500000 0.500000 -2.078435
v 0.500000 0.002711 -2.078435
v 0.045810 0.002711 -2.078435
v -0.500000 0.002711 -2.078435
v 0.045810 -0.500000 -2.078435
v -0.500000 -0.500000 -2.078435
v -0.500000 0.002711 4.001368
v 0.045810 0.002711 4.001368
v 0.045810 0.500000 4.001368
v -0.500000 0.500000 4.001368
vt 0.375000 0.000000
vt 0.625000 0.000000
vt 0.375000 0.250000
vt 0.625000 0.250000
vt 0.375000 0.500000
vt 0.625000 0.500000
vt 0.375000 0.750000
vt 0.625000 0.750000
vt 0.375000 1.000000
vt 0.625000 1.000000
vt 0.875000 0.000000
vt 0.875000 0.250000
vt 0.125000 0.000000
vt 0.125000 0.250000
vt 0.375000 0.125678
vt 0.625000 0.125678
vt 0.625000 0.624322
vt 0.875000 0.125678
vt 0.125000 0.125678
vt 0.375000 0.624322
vt 0.511452 0.000000
vt 0.511452 1.000000
vt 0.511452 0.750000
vt 0.511452 0.624322
vt 0.511452 0.500000
vt 0.511452 0.250000
vt 0.511452 0.125678
vt 0.254410 0.250000
vt 0.375000 0.370590
vt 0.511452 0.370590
vt 0.625000 0.370590
vt 0.745590 0.250000
vt 0.745590 0.125678
vt 0.625000 0.879410
vt 0.745590 0.000000
vt 0.511452 0.879410
vt 0.254410 0.000000
vt 0.375000 0.879410
vt 0.254410 0.125678
vt 0.745590 0.125678
vt 0.745590 0.000000
vt 0.875000 0.000000
vt 0.875000 0.125678
vt 0.625000 0.125678
vt 0.745590 0.250000
vt 0.625000 0.250000
vt 0.125000 0.125678
vt 0.254410 0.125678
vt 0.254410 0.250000
vt 0.125000 0.250000
vt 0.254410 0.000000
vt 0.375000 0.000000
vt 0.375000 0.125678
vt 0.511452 0.500000
vt 0.511452 0.370590
vt 0.625000 0.370590
vt 0.625000 0.500000
vt 0.375000 0.250000
vt 0.511452 0.250000
vt 0.375000 0.370590
vt 0.511452 0.624322
vt 0.511452 0.500000
vt 0.625000 0.500000
vt 0.625000 0.624322
vt 0.375000 0.624322
vt 0.511452 0.750000
vt 0.375000 0.750000
vt 0.375000 0.125678
vt 0.511452 0.125678
vt 0.511452 0.250000
vt 0.375000 0.250000
vn 0.000000 0.000000 1.000000
vn 0.000000 0.000000 1.000000
vn 0.000000 0.000000 1.000000
vn 0.000000 0.000000 1.000000
vn 0.000000 1.000000 0.000000
vn 0.000000 1.000000 0.000000
vn 0.000000 1.000000 0.000000
vn 0.000000 1.000000 0.000000
vn 0.000000 0.000000 -1.000000
vn 0.000000 0.000000 -1.000000
vn 0.000000 0.000000 -1.000000
vn 0.000000 0.000000 -1.000000
vn 0.000000 -1.000000 0.000000
vn 0.000000 -1.000000 0.000000
vn 0.000000 -1.000000 0.000000
vn 0.000000 -1.000000 0.000000
vn 1.000000 0.000000 0.000000
vn 1.000000 0.000000 0.000000
vn 1.000000 0.000000 0.000000
vn 1.000000 0.000000 0.000000
vn -1.000000 0.000000 0.000000
vn -1.000000 0.000000 0.000000
vn -1.000000 0.000000 0.000000
vn -1.000000 0.000000 0.000000
vn 0.000000 0.000000 1.000000
vn 0.000000 0.000000 1.000000
vn 1.000000 0.000000 0.000000
vn 1.000000 0.000000 0.000000
vn 1.000000 0.000000 0.000000
vn 1.000000 0.000000 0.000000
vn 0.000000 0.000000 -1.000000
vn 0.000000 0.000000 -1.000000
vn 0.000000 0.000000 -1.000000
vn 0.000000 0.000000 -1.000000
vn -1.000000 0.000000 0.000000
vn -1.000000 0.000000 0.000000
vn -1.000000 0.000000 0.000000
vn -1.000000 0.000000 0.000000
vn 0.000000 -1.000000 0.000000
vn 0.000000 -1.000000 0.000000
vn 0.000000 0.000000 -1.000000
vn 0.000000 0.000000 -1.000000
vn 0.000000 0.000000 -1.000000
vn 0.000000 0.000000 -1.000000
vn 0.000000 0.000000 -1.000000
vn 0.000000 0.000000 -1.000000
vn 0.000000 0.000000 -1.000000
vn 0.000000 0.000000 -1.000000
vn 0.000000 1.000000 0.000000
vn 0.000000 1.000000 0.000000
vn 0.000000 1.000000 0.000000
vn 0.000000 1.000000 0.000000
vn 0.000000 0.000000 1.000000
vn 0.000000 0.000000 1.000000
vn 0.000000 0.000000 1.000000
vn 0.000000 0.000000 1.000000
vn 0.000000 0.000000 1.000000
vn 0.000000 0.000000 1.000000
vn 0.000000 1.000000 0.000000
vn 0.000000 1.000000 0.000000
vn 0.000000 1.000000 0.000000
vn 0.000000 1.000000 0.000000
vn 0.000000 1.000000 0.000000
vn 0.000000 1.000000 0.000000
vn 0.000000 1.000000 0.000000
vn 0.000000 1.000000 0.000000
vn 1.000000 0.000000 0.000000
vn 1.000000 0.000000 0.000000
vn 1.000000 0.000000 0.000000
vn 1.000000 0.000000 0.000000
vn 1.000000 0.000000 0.000000
vn 1.000000 0.000000 0.000000
vn 1.000000 0.000000 0.000000
vn 1.000000 0.000000 0.000000
vn 0.000000 -1.000000 0.000000
vn 0.000000 -1.000000 0.000000
vn 0.000000 -1.000000 0.000000
vn -1.000000 0.000000 0.000000
vn -1.000000 0.000000 0.000000
vn -1.000000 0.000000 0.000000
vn -1.000000 0.000000 0.000000
vn -1.000000 0.000000 0.000000
vn -1.000000 0.000000 0.000000
vn -1.000000 0.000000 0.000000
vn -1.000000 0.000000 0.000000
vn 0.000000 0.000000 1.000000
vn 0.000000 0.000000 1.000000
vn 0.000000 0.000000 1.000000
vn 0.000000 0.000000 1.000000
vn 0.000000 -1.000000 0.000000
vn 0.000000 -1.000000 0.000000
vn 0.000000 0.000000 -1.000000
vn 0.000000 0.000000 -1.000000
vn 0.000000 1.000000 0.000000
vn 0.000000 1.000000 0.000000
vn 0.000000 1.000000 0.000000
vn 0.000000 1.000000 0.000000
vn 0.000000 -1.000000 0.000000
vn 0.000000 -1.000000 0.000000
vn 0.000000 -1.000000 0.000000
vn 0.000000 -1.000000 0.000000
vn 0.000000 0.000000 -1.000000
vn 0.000000 0.000000 -1.000000
vn 0.000000 0.000000 -1.000000
vn 0.000000 0.000000 -1.000000
vn 0.000000 1.000000 0.000000
vn 0.000000 1.000000 0.000000
vn 0.000000 0.000000 1.000000
vn 0.000000 0.000000 1.000000
vn 0.000000 -1.000000 0.000000
vn 0.000000 -1.000000 0.000000
vn 0.000000 -1.000000 0.000000
vn 0.000000 -1.000000 0.000000
vn 0.000000 0.000000 1.000000
vn 0.000000 0.000000 1.000000
vn 0.000000 0.000000 1.000000
vn 0.000000 0.000000 1.000000
vn 0.000000 1.000000 0.000000
vn 0.000000 1.000000 0.000000
vn 0.000000 0.000000 -1.000000
vn 0.000000 0.000000 -1.000000
vn 0.000000 0.000000 -1.000000
vn 0.000000 0.000000 -1.000000
vn 0.000000 0.000000 -1.000000
vn 0.000000 0.000000 -1.000000
vn 0.000000 -1.000000 0.000000
vn 0.000000 -1.000000 0.000000
vn 0.000000 0.000000 1.000000
vn 0.000000 0.000000 1.000000
vn 0.000000 1.000000 0.000000
vn 0.000000 1.000000 0.000000
vn 0.000000 1.000000 0.000000
vn 0.000000 1.000000 0.000000
vn -1.000000 0.000000 0.000000
vn -1.000000 0.000000 0.000000
vn -1.000000 0.000000 0.000000
vn -1.000000 0.000000 0.000000
vn 0.000000 0.000000 1.000000
vn 0.000000 0.000000 1.000000
vn 0.000000 0.000000 1.000000
vn 0.000000 0.000000 1.000000
vn 1.000000 0.000000 0.000000
vn 1.000000 0.000000 0.000000
vn 0.000000 0.000000 -1.000000
vn 0.000000 0.000000 -1.000000
vn 0.000000 0.000000 -1.000000
vn 0.000000 0.000000 -1.000000
vn 0.000000 0.000000 1.000000
vn 0.000000 0.000000 1.000000
vn 0.000000 0.000000 1.000000
vn 0.000000 0.000000 1.000000
vn 1.000000 0.000000 0.000000
vn 1.000000 0.000000 0.000000
vn 1.000000 0.000000 0.000000
vn 1.000000 0.000000 0.000000
vn 0.000000 0.000000 -1.000000
vn 0.000000 0.000000 -1.000000
vn 0.000000 0.000000 -1.000000
vn 0.000000 0.000000 -1.000000
vn -1.000000 0.000000 0.000000
vn -1.000000 0.000000 0.000000
vn -1.000000 -0.000001 0.000000
vn -1.000000 -0.000001 0.000000
vn -1.000000 -0.000001 0.000000
vn -1.000000 -0.000001 0.000000
vn 0.000000 1.000000 0.000000
vn 0.000000 1.000000 0.000000
vn 0.000000 1.000000 0.000000
vn 0.000000 1.000000 0.000000
vn 1.000000 0.000000 0.000000
vn 1.000000 0.000000 0.000000
vn 0.000000 -1.000000 0.000000
vn 0.000000 -1.000000 0.000000
vn 0.000000 -1.000000 0.000000
vn 0.000000 -1.000000 0.000000
vn 0.000000 1.000000 0.000000
vn 0.000000 1.000000 0.000000
vn 0.000000 1.000000 0.000000
vn 0.000000 1.000000 0.000000
vn 1.000000 -0.000001 0.000000
vn 1.000000 -0.000001 0.000000
vn 1.000000 -0.000001 0.000000
vn 1.000000 -0.000001 0.000000
vn 0.000000 -1.000000 0.000000
vn 0.000000 -1.000000 0.000000
vn -1.000000 0.000000 0.000000
vn -1.000000 0.000000 0.000000
vn 0.000000 -1.000000 0.000000
vn 0.000000 -1.000000 0.000000
vn 0.000000 -1.000000 0.000000
vn 0.000000 -1.000000 0.000000
vn 1.000000 0.000000 0.000000
vn 1.000000 0.000000 0.000000
vn 1.000000 0.000000 0.000000
vn 1.000000 0.000000 0.000000
vn 0.000000 1.000000 0.000000
vn 0.000000 1.000000 0.000000
vn 0.000000 1.000000 0.000000
vn 0.000000 1.000000 0.000000
vn -1.000000 0.000000 0.000000
vn -1.000000 0.000000 0.000000
s 1
g pCube2
usemtl initialShadingGroup
f 17/26/1 18/27/2 10/16/3 4/4/4
s off
f 43/54/5 44/55/6 45/56/7 46/57/8
f 51/61/9 52/62/10 53/63/11 54/64/12
s 2
f 23/34/13 24/36/14 14/23/15 8/8/16
s 3
f 21/32/17 22/33/18 11/18/19 6/12/20
s off
f 35/47/21 36/48/22 37/49/23 38/50/24
s 1
f 18/27/2 13/21/25 2/2/26 10/16/3
s off
f 27/40/27 28/41/28 29/42/29 30/43/30
s 4
f 14/23/31 15/24/32 11/17/33 8/8/34
s 5
f 7/13/35 25/37/36 26/39/37 12/19/38
s 2
f 7/7/39 14/23/15 24/36/14 25/38/40
s off
f 56/65/41 55/61/42 57/66/43 58/67/44
s 6
f 5/5/45 16/25/46 15/24/47 12/20/48
s 7
f 19/29/49 20/30/50 16/25/51 5/5/52
s off
f 59/68/53 60/69/54 61/70/55 62/71/56
s 1
f 1/1/57 13/21/25 18/27/2 9/15/58
s off
f 47/58/59 48/59/60 49/55/61 50/60/62
s 8
f 21/31/63 20/30/64 17/26/65 4/4/66
s off
f 31/44/67 32/40/68 33/45/69 34/46/70
f 2/2/71 23/35/72 22/33/73 10/16/74
s 2
f 13/22/75 24/36/14 23/34/13 2/10/76
f 25/38/40 24/36/14 13/22/75 1/9/77
s off
f 40/48/78 39/51/79 41/52/80 42/53/81
s 9
f 19/28/82 26/39/83 9/15/84 3/3/85
s off
f 22/33/86 23/35/87 28/41/88 27/40/89
s 2
f 23/35/13 8/11/16 29/42/90 28/41/91
s 4
f 8/11/34 11/18/33 30/43/92 29/42/93
s off
f 11/18/94 22/33/95 27/40/96 30/43/97
f 10/16/98 22/33/99 32/40/100 31/44/101
f 22/33/102 21/32/103 33/45/104 32/40/105
s 8
f 21/32/63 4/4/66 34/46/106 33/45/107
s 1
f 4/4/4 10/16/3 31/44/108 34/46/109
s off
f 12/19/110 26/39/111 36/48/112 35/47/113
f 26/39/114 19/28/115 37/49/116 36/48/117
s 7
f 19/28/49 5/14/52 38/50/118 37/49/119
s 6
f 5/14/45 12/19/48 35/47/120 38/50/121
s off
f 26/39/122 25/37/123 39/51/124 40/48/125
s 2
f 25/37/40 1/1/77 41/52/126 39/51/127
s 1
f 1/1/57 9/15/58 42/53/128 41/52/129
s off
f 9/15/130 26/39/131 40/48/132 42/53/133
f 16/25/134 20/30/135 44/55/136 43/54/137
f 20/30/138 21/31/139 45/56/140 44/55/141
s 3
f 21/31/17 6/6/20 46/57/142 45/56/143
s off
f 6/6/144 16/25/145 43/54/146 46/57/147
f 3/3/148 17/26/149 48/59/150 47/58/151
f 17/26/152 20/30/153 49/55/154 48/59/155
f 20/30/156 19/29/157 50/60/158 49/55/159
s 9
f 19/29/82 3/3/85 47/58/160 50/60/161
s off
f 15/24/162 16/25/163 52/62/164 51/61/165
f 16/25/166 6/6/167 53/63/168 52/62/169
s 3
f 6/6/20 11/17/19 54/64/170 53/63/171
s off
f 11/17/172 15/24/173 51/61/174 54/64/175
f 12/20/176 15/24/177 55/61/178 56/65/179
f 15/24/180 14/23/181 57/66/182 55/61/183
s 2
f 14/23/15 7/7/39 58/67/184 57/66/185
s 5
f 7/7/35 12/20/38 56/65/186 58/67/187
s off
f 9/15/188 18/27/189 60/69/190 59/68/191
f 18/27/192 17/26/193 61/70/194 60/69/195
f 17/26/196 3/3/197 62/71/198 61/70/199
s 9
f 3/3/85 9/15/84 59/68/200 62/71/201
